<?xml version="1.0" standalone="no"?><!DOCTYPE svg PUBLIC "-//W3C//DTD SVG 1.1//EN" "http://www.w3.org/Graphics/SVG/1.1/DTD/svg11.dtd"><svg t="1552119098287" class="icon" style="" viewBox="0 0 1024 1024" version="1.1" xmlns="http://www.w3.org/2000/svg" p-id="2859" xmlns:xlink="http://www.w3.org/1999/xlink" width="200" height="200"><defs><style type="text/css"></style></defs><path d="M879.978667 120.128 490.453333 120.128l-232.661333-108.586667c-12.8-5.952-26.304-9.002667-40.170667-9.002667-52.330667 0-94.954667 42.645333-94.954667 95.061333l0 24.256C53.376 132.245333 0 191.978667 0 264.128L0 877.44c0 79.445333 64.618667 144.021333 144.021333 144.021333L512 1021.461333l367.978667 0c79.445333 0 144.021333-64.576 144.021333-144.021333L1024 264.128C1024 184.704 959.424 120.106667 879.978667 120.128zM165.397333 97.6c0-32.32 27.136-52.330667 52.224-52.330667 7.573333 0 14.997333 1.685333 22.101333 4.992l250.922667 117.098667 0 774.677333L195.541333 804.352c-18.304-8.618667-30.144-27.136-30.144-47.402667L165.397333 97.6zM42.730667 877.44 42.730667 264.106667c0-48.533333 34.325333-89.088 79.936-98.922667l0 591.786667c0 36.757333 21.482667 70.549333 54.784 86.08l290.816 135.658667L144.021333 978.709333C88.149333 978.709333 42.730667 933.269333 42.730667 877.44zM981.269333 877.44c0 55.850667-45.44 101.290667-101.290667 101.290667L532.970667 978.730667c0.149333-1.066667 0.405333-2.112 0.405333-3.178667L533.376 162.837333l346.602667 0c55.850667 0 101.290667 45.44 101.290667 101.290667L981.269333 877.44z" p-id="2860"></path></svg>