<?xml version="1.0" standalone="no"?><!DOCTYPE svg PUBLIC "-//W3C//DTD SVG 1.1//EN" "http://www.w3.org/Graphics/SVG/1.1/DTD/svg11.dtd"><svg t="1552119347041" class="icon" style="" viewBox="0 0 1024 1024" version="1.1" xmlns="http://www.w3.org/2000/svg" p-id="4495" xmlns:xlink="http://www.w3.org/1999/xlink" width="200" height="200"><defs><style type="text/css"></style></defs><path d="M911.7 604.1L822 514.4c28.4-35.4 45.5-80.3 45.5-129.3 0-114.2-92.6-206.7-206.8-206.7-114.2 0-206.8 92.5-206.8 206.7s92.6 206.7 206.8 206.7c43.9 0 84.6-13.8 118.1-37.1l91.1 91.1c4.1 4.1 9.6 6.1 15.5 6.1 7.7 0 16-3.4 22.5-9.9 11.5-11.5 13.2-28.5 3.8-37.9z m-251-71.3c-81.5 0-147.7-66.2-147.7-147.6 0-81.4 66.2-147.6 147.7-147.6s147.8 66.2 147.8 147.6c0 81.4-66.3 147.6-147.8 147.6zM158.5 276.9h216.6c10.9 0 19.7-8.8 19.7-19.7v-19.7c0-10.9-8.8-19.7-19.7-19.7H158.5c-10.8 0-19.7 8.8-19.7 19.7v19.7c0 10.9 8.9 19.7 19.7 19.7zM158.5 592h256c10.9 0 19.7-8.9 19.7-19.7v-19.7c0-10.9-8.8-19.7-19.7-19.7h-256c-10.8 0-19.7 8.8-19.7 19.7v19.7c0 10.9 8.9 19.7 19.7 19.7zM847.8 808.6H158.5c-10.8 0-19.7 8.8-19.7 19.7V848c0 10.8 8.8 19.7 19.7 19.7h689.3c10.8 0 19.7-8.8 19.7-19.7v-19.7c0-10.9-8.9-19.7-19.7-19.7z" fill="#666666" p-id="4496"></path></svg>