<?xml version="1.0" standalone="no"?><!DOCTYPE svg PUBLIC "-//W3C//DTD SVG 1.1//EN" "http://www.w3.org/Graphics/SVG/1.1/DTD/svg11.dtd"><svg t="1552119869286" class="icon" style="" viewBox="0 0 1024 1024" version="1.1" xmlns="http://www.w3.org/2000/svg" p-id="11096" xmlns:xlink="http://www.w3.org/1999/xlink" width="200" height="200"><defs><style type="text/css"></style></defs><path d="M1011.2 320l-83.2-140.8c-44.8-64-102.4-89.6-217.6-89.6H627.2c-12.8 0-19.2 6.4-25.6 12.8l-19.2 44.8L512 230.4 448 153.6l-19.2-38.4c0-12.8-12.8-19.2-25.6-19.2H313.6c-102.4 0-172.8 32-224 102.4L12.8 320c-12.8 25.6-6.4 57.6 12.8 70.4L128 480c19.2 12.8 38.4 19.2 57.6 12.8H192l6.4-6.4v371.2c0 76.8 57.6 134.4 134.4 134.4h345.6c76.8 0 134.4-57.6 134.4-134.4V480h32c12.8 0 32-6.4 44.8-12.8L992 384c25.6-6.4 32-38.4 19.2-64z m-153.6 108.8h-12.8l-19.2-12.8h-12.8c-6.4 0-12.8-6.4-19.2-6.4-12.8 6.4-25.6 19.2-25.6 38.4v409.6c0 44.8-38.4 76.8-76.8 76.8H339.2c-44.8 0-76.8-38.4-76.8-76.8V448C256 448 256 448 256 441.6c0-12.8-12.8-25.6-32-25.6-12.8 0-25.6 6.4-25.6 6.4l-32 19.2h-6.4L57.6 352l76.8-121.6c32-44.8 76.8-76.8 172.8-76.8H384l12.8 25.6s0 6.4 6.4 6.4l76.8 89.6c19.2 19.2 51.2 19.2 64 0l76.8-89.6s0-6.4 6.4-6.4l12.8-25.6h70.4c108.8 0 140.8 19.2 166.4 64L960 352l-102.4 76.8z" fill="#2F3449" p-id="11097"></path></svg>