<?xml version="1.0" standalone="no"?><!DOCTYPE svg PUBLIC "-//W3C//DTD SVG 1.1//EN" "http://www.w3.org/Graphics/SVG/1.1/DTD/svg11.dtd"><svg t="1552119542709" class="icon" style="" viewBox="0 0 1025 1024" version="1.1" xmlns="http://www.w3.org/2000/svg" p-id="7008" xmlns:xlink="http://www.w3.org/1999/xlink" width="200.1953125" height="200"><defs><style type="text/css"></style></defs><path d="M512.001024 895.995648c-32.743489 0-64.663681-2.95527-95.699135-8.093712L191.998336 1024 191.998336 797.421115C75.051158 715.310487 0 589.403291 0 448.002944 0 200.575377 229.233098 0 512.001024 0c282.769974 0 512.001024 200.575377 512.001024 448.002944C1024.002048 695.424367 794.773046 895.995648 512.001024 895.995648zM512.001024 64.004224c-247.423471 0-448.000896 171.921752-448.000896 383.99872 0 130.115844 75.696279 244.92081 191.205758 314.368629l-2.019332 148.433193 150.638893-90.546357c34.703429 7.387151 70.803598 11.743255 108.173528 11.743255 247.425519 0 448.000896-171.921752 448.000896-383.99872S759.426543 64.004224 512.001024 64.004224zM736.001472 416.000832l-448.000896 0c-17.672227 0-32.000064-14.325789-32.000064-31.998016s14.327837-32.002112 32.000064-32.002112l448.000896 0c17.672227 0 32.002112 14.329885 32.002112 32.002112S753.673699 416.000832 736.001472 416.000832zM352.000704 544.005184l320.00064 0c17.672227 0 32.000064 14.319645 32.000064 31.998016 0 17.668131-14.327837 31.991872-32.000064 31.991872l-320.00064 0c-17.674275 0-32.000064-14.323741-32.000064-31.991872C320.00064 558.324829 334.326429 544.005184 352.000704 544.005184z" p-id="7009"></path></svg>