<?xml version="1.0" standalone="no"?><!DOCTYPE svg PUBLIC "-//W3C//DTD SVG 1.1//EN" "http://www.w3.org/Graphics/SVG/1.1/DTD/svg11.dtd"><svg t="1552119894608" class="icon" style="" viewBox="0 0 1024 1024" version="1.1" xmlns="http://www.w3.org/2000/svg" p-id="12007" xmlns:xlink="http://www.w3.org/1999/xlink" width="200" height="200"><defs><style type="text/css"></style></defs><path d="M441.3 64H111.2C85.2 64 64 85.2 64 111.2v330.1c0 25.9 21.2 47.2 47.2 47.2h330.1c25.9 0 47.2-21.2 47.2-47.2V111.2c-0.1-26-21.3-47.2-47.2-47.2z m0 353.7c0 13-10.6 23.6-23.6 23.6h-283c-13 0-23.6-10.6-23.6-23.6v-283c0-13 10.6-23.6 23.6-23.6h282.9c13 0 23.6 10.6 23.6 23.6v283zM441.3 535.6H111.2c-25.9 0-47.2 21.2-47.2 47.2v330.1c0 25.9 21.2 47.2 47.2 47.2h330.1c25.9 0 47.2-21.2 47.2-47.2V582.7c-0.1-25.9-21.3-47.1-47.2-47.1z m0 353.7c0 13-10.6 23.6-23.6 23.6h-283c-13 0-23.6-10.6-23.6-23.6v-283c0-13 10.6-23.6 23.6-23.6h282.9c13 0 23.6 10.6 23.6 23.6v283zM912.8 535.6H582.7c-25.9 0-47.2 21.2-47.2 47.2v330.1c0 25.9 21.2 47.2 47.2 47.2h330.1c25.9 0 47.2-21.2 47.2-47.2V582.7c0-25.9-21.2-47.1-47.2-47.1z m0 353.7c0 13-10.6 23.6-23.6 23.6H606.3c-13 0-23.6-10.6-23.6-23.6v-283c0-13 10.6-23.6 23.6-23.6h282.9c13 0 23.6 10.6 23.6 23.6v283zM714.4 444.6c18.4 18.4 48.3 18.4 66.7 0l150.1-150.1c18.4-18.4 18.4-48.3 0-66.7l-150.1-150c-18.4-18.4-48.3-18.4-66.7 0l-150 150.1c-18.4 18.4-18.4 48.3 0 66.7l150 150z m-100-200.1l116.7-116.7c9.2-9.2 24.1-9.2 33.3 0l116.7 116.7c9.2 9.2 9.2 24.1 0 33.3L764.5 394.6c-9.2 9.2-24.1 9.2-33.3 0L614.4 277.9c-9.2-9.2-9.2-24.2 0-33.4z" fill="#000000" p-id="12008"></path></svg>