<?xml version="1.0" standalone="no"?><!DOCTYPE svg PUBLIC "-//W3C//DTD SVG 1.1//EN" "http://www.w3.org/Graphics/SVG/1.1/DTD/svg11.dtd"><svg t="1552119295500" class="icon" style="" viewBox="0 0 1024 1024" version="1.1" xmlns="http://www.w3.org/2000/svg" p-id="3651" xmlns:xlink="http://www.w3.org/1999/xlink" width="200" height="200"><defs><style type="text/css"></style></defs><path d="M362.8 197.04a318.72 318.72 0 0 1 345.52 30.64 96 96 0 1 0 38.4-51.68 384 384 0 0 0-419.92-32.64l1.36 1.2a157.52 157.52 0 0 1 34.64 52.48zM192 480a317.52 317.52 0 0 1 26.96-128h6.08A96 96 0 1 0 160 326.48a384 384 0 0 0 200.88 506.64 160.64 160.64 0 0 1 14.48-64A320 320 0 0 1 192 480z m631.2-74.4a320 320 0 0 1-224.88 382.48 96 96 0 1 0 8.56 64 384 384 0 0 0 276.64-469.44 158.96 158.96 0 0 1-60.32 22.96z" p-id="3652"></path></svg>