<?xml version="1.0" standalone="no"?><!DOCTYPE svg PUBLIC "-//W3C//DTD SVG 1.1//EN" "http://www.w3.org/Graphics/SVG/1.1/DTD/svg11.dtd"><svg t="1552119386265" class="icon" style="" viewBox="0 0 1024 1024" version="1.1" xmlns="http://www.w3.org/2000/svg" p-id="5266" xmlns:xlink="http://www.w3.org/1999/xlink" width="200" height="200"><defs><style type="text/css"></style></defs><path d="M947.2 422.4l-12.8-212.8c-3.2-64-56-116.8-120-120l-212.8-12.8c-36.8-1.6-72 11.2-97.6 36.8L113.6 502.4C64 553.6 64 633.6 113.6 683.2l225.6 225.6c49.6 49.6 131.2 49.6 180.8 0l388.8-388.8c27.2-25.6 41.6-60.8 38.4-97.6z m-81.6 52.8L475.2 865.6c-25.6 25.6-65.6 25.6-91.2 0L158.4 638.4c-25.6-25.6-25.6-65.6 0-91.2L548.8 158.4c12.8-12.8 30.4-19.2 49.6-19.2l214.4 12.8c32 1.6 57.6 27.2 60.8 60.8l12.8 212.8c-1.6 19.2-8 36.8-20.8 49.6z" fill="#4A576A" p-id="5267"></path><path d="M550.4 292.8c-49.6 49.6-49.6 131.2 0 180.8s131.2 49.6 180.8 0 49.6-131.2 0-180.8-131.2-49.6-180.8 0z m134.4 136c-25.6 25.6-65.6 25.6-91.2 0-25.6-25.6-25.6-65.6 0-91.2 25.6-25.6 65.6-25.6 91.2 0 25.6 25.6 25.6 65.6 0 91.2z" fill="#4A576A" p-id="5268"></path></svg>