<?xml version="1.0" standalone="no"?><!DOCTYPE svg PUBLIC "-//W3C//DTD SVG 1.1//EN" "http://www.w3.org/Graphics/SVG/1.1/DTD/svg11.dtd"><svg t="1552118860753" class="icon" style="" viewBox="0 0 1024 1024" version="1.1" xmlns="http://www.w3.org/2000/svg" p-id="1287" xmlns:xlink="http://www.w3.org/1999/xlink" width="200" height="200"><defs><style type="text/css"></style></defs><path d="M372.7 186h465.5c25.7 0 46.5 20.8 46.5 46.5S863.9 279 838.2 279H372.7c-25.7 0-46.5-20.8-46.5-46.5S347 186 372.7 186zM205.2 837.6c-36 0-65.2-29.2-65.2-65.2s29.2-65.2 65.2-65.2 65.2 29.2 65.2 65.2-29.2 65.2-65.2 65.2z m0-260.6c-36 0-65.2-29.2-65.2-65.2s29.2-65.2 65.2-65.2 65.2 29.2 65.2 65.2-29.2 65.2-65.2 65.2z m0-260.7c-36 0-65.2-29.2-65.2-65.2s29.2-65.1 65.2-65.1 65.2 29.2 65.2 65.2-29.2 65.1-65.2 65.1zM838.2 558.4H372.7c-25.7 0-46.5-20.9-46.5-46.5 0-25.7 20.9-46.5 46.5-46.5h465.5c25.7 0 46.5 20.9 46.5 46.5s-20.9 46.5-46.5 46.5z m-465.5-46.6h465.5-465.5zM838.2 837.6H372.7c-25.7 0-46.5-20.9-46.5-46.5s20.9-46.5 46.5-46.5h465.5c25.7 0 46.5 20.9 46.5 46.5s-20.9 46.5-46.5 46.5z m-465.5-46.5h465.5-465.5z" p-id="1288"></path></svg>