<?xml version="1.0" standalone="no"?><!DOCTYPE svg PUBLIC "-//W3C//DTD SVG 1.1//EN" "http://www.w3.org/Graphics/SVG/1.1/DTD/svg11.dtd"><svg t="1552121416936" class="icon" style="" viewBox="0 0 1024 1024" version="1.1" xmlns="http://www.w3.org/2000/svg" p-id="1091" xmlns:xlink="http://www.w3.org/1999/xlink" width="200" height="200"><defs><style type="text/css"></style></defs><path d="M788.551 292.895c-74.801 0-135.633-60.832-135.633-135.605l0-156.171-487.636 0c-45.595 0-82.548 36.982-82.548 82.549l0 856.719c0 45.567 36.955 82.493 82.548 82.493l693.46 0c45.571 0 82.523-36.926 82.523-82.493l0-647.493-152.714 0zM805.084 839.116l-586.199 0 0-55.301 586.199 0 0 55.301zM805.084 662.15l-586.199 0 0-55.301 586.199 0 0 55.301zM805.084 485.184l-586.199 0 0-55.301 586.199 0 0 55.301zM706.002 1.119l0 156.171c0 45.567 36.955 82.493 82.549 82.493l152.714 0-235.263-238.662z" p-id="1092"></path></svg>